<svg viewBox="0 0 200 200" xmlns="http://www.w3.org/2000/svg">
  <!-- Background circle -->
  <circle cx="100" cy="100" r="90" fill="#3B82F6" stroke="#1E40AF" stroke-width="3"/>
  
  <!-- Book base -->
  <rect x="60" y="120" width="80" height="50" rx="4" fill="#1E40AF"/>
  
  <!-- Book pages -->
  <rect x="65" y="115" width="70" height="45" rx="2" fill="#DBEAFE"/>
  <line x1="75" y1="125" x2="125" y2="125" stroke="#3B82F6" stroke-width="2"/>
  <line x1="75" y1="135" x2="115" y2="135" stroke="#3B82F6" stroke-width="2"/>
  <line x1="75" y1="145" x2="120" y2="145" stroke="#3B82F6" stroke-width="2"/>
  
  <!-- Friendly AI brain/head -->
  <circle cx="100" cy="70" r="25" fill="#60A5FA"/>
  
  <!-- AI circuit pattern -->
  <circle cx="90" cy="65" r="2" fill="#1E40AF"/>
  <circle cx="110" cy="65" r="2" fill="#1E40AF"/>
  <circle cx="100" cy="75" r="2" fill="#1E40AF"/>
  <line x1="90" y1="65" x2="100" y2="75" stroke="#1E40AF" stroke-width="1"/>
  <line x1="110" y1="65" x2="100" y2="75" stroke="#1E40AF" stroke-width="1"/>
  
  <!-- Friendly eyes -->
  <circle cx="92" cy="62" r="3" fill="#FFFFFF"/>
  <circle cx="108" cy="62" r="3" fill="#FFFFFF"/>
  <circle cx="92" cy="62" r="1.5" fill="#1E40AF"/>
  <circle cx="108" cy="62" r="1.5" fill="#1E40AF"/>
  
  <!-- Smile -->
  <path d="M 88 78 Q 100 85 112 78" stroke="#FFFFFF" stroke-width="2" fill="none" stroke-linecap="round"/>
  
  <!-- Knowledge sparkles -->
  <g fill="#FBBF24">
    <polygon points="45,45 47,50 52,50 48,53 50,58 45,55 40,58 42,53 38,50 43,50" transform="scale(0.8)"/>
    <polygon points="160,40 162,45 167,45 163,48 165,53 160,50 155,53 157,48 153,45 158,45" transform="scale(0.6)"/>
    <polygon points="155,140 157,145 162,145 158,148 160,153 155,150 150,153 152,148 148,145 153,145" transform="scale(0.7)"/>
  </g>
  
  <!-- Text -->
  <text x="100" y="190" text-anchor="middle" font-family="Arial, sans-serif" font-size="14" font-weight="bold" fill="#1E40AF">Study Buddy</text>
</svg>
